<svg width="117" height="33" viewBox="0 0 117 33" fill="none" xmlns="http://www.w3.org/2000/svg">
<path d="M43.4 20.5L48.7 6.4H50.9L43.4 26L35.9 6.4H38.1L43.4 20.5Z" fill="#030A67"/>
<path d="M52.3 12H59V13.3H53.8V17.1H58.9V18.5H53.8V23.6H59V24.9H52.3V12Z" fill="#030A67"/>
<path d="M73.7 13.9V6.4H75.7V24.9H73.7V15.8H64.2V24.9H62.2V6.4H64.2V13.9H73.7Z" fill="#E24301"/>
<path d="M80.4 12H79V24.9H80.4V12Z" fill="#E24301"/>
<path d="M97.8 10.5C97.1 9.7 96.2 9.1 95.2 8.7C94.2 8.3 93.2 8.1 92.1 8.1C91.1 8.1 90.1 8.3 89.2 8.7C88.3 9.1 87.5 9.7 86.8 10.4C86.1 11.1 85.6 11.9 85.2 12.8C84.8 13.7 84.6 14.7 84.6 15.7C84.6 16.7 84.8 17.7 85.2 18.6C85.6 19.5 86.1 20.3 86.8 21C87.5 21.7 88.3 22.3 89.2 22.7C90.1 23.1 91.1 23.3 92.1 23.3C93.1 23.3 94.2 23.1 95.1 22.6C96.1 22.2 96.9 21.6 97.7 20.8V23.3C96.9 23.9 96 24.3 95.1 24.6C94.2 24.9 93.2 25.1 92.2 25.1C90.9 25.1 89.7 24.9 88.5 24.4C87.3 23.9 86.3 23.2 85.4 22.4C84.5 21.5 83.8 20.5 83.3 19.4C82.8 18.2 82.5 17 82.5 15.7C82.5 14.4 82.8 13.1 83.3 12C83.8 10.8 84.5 9.8 85.4 8.9C86.3 8 87.3 7.3 88.5 6.8C89.7 6.3 90.9 6 92.2 6C94.3 6 96.1 6.6 97.7 7.8L97.8 10.5Z" fill="#030A67"/>
<path d="M100.7 12H107.4V13.3H102.1V17.1H107.2V18.5H102.1V23.6H107.4V24.9H100.7V12Z" fill="#030A67"/>
<path d="M19.9 21.9L26.3 4.7C24.4 3.6 22.2 3 19.9 3C17.6 3 15.4 3.6 13.5 4.7L19.9 21.9Z" fill="#E24301"/>
<path d="M28.5 6.3L19.9 28.7L11.3 6.3C8.7 8.6 7 12.1 7 15.9C7 23 12.8 28.8 19.9 28.8C27 28.8 32.8 23 32.8 15.9C32.8 12.1 31.1 8.6 28.5 6.3Z" fill="#E24301"/>
</svg>
